<?xml version="1.0" standalone="no"?>
<!DOCTYPE svg PUBLIC "-//W3C//DTD SVG 20010904//EN"
 "http://www.w3.org/TR/2001/REC-SVG-20010904/DTD/svg10.dtd">
<svg version="1.0" xmlns="http://www.w3.org/2000/svg"
 width="16.000000pt" height="16.000000pt" viewBox="0 0 16.000000 16.000000"
 preserveAspectRatio="xMidYMid meet">
<metadata>
Created by potrace 1.11, written by Peter Selinger 2001-2013
</metadata>
<g transform="translate(0.000000,16.000000) scale(0.001695,-0.001695)"
fill="#000000" stroke="none">
<path d="M0 4730 l0 -3111 128 0 c70 1 134 1 142 0 8 0 116 0 240 0 124 0 232
0 240 0 8 0 116 0 240 0 124 0 232 0 240 0 8 0 116 0 240 0 124 0 232 0 240 0
8 0 116 0 240 0 124 0 232 0 240 0 13 0 584 0 645 0 266 1 415 3 415 5 0 2
-12 35 -26 72 -60 158 -106 322 -138 490 -18 91 -37 242 -40 306 -2 42 -6 80
-8 85 -7 12 -2 346 6 423 13 135 26 235 41 310 3 14 7 36 10 50 2 14 7 39 11
55 27 132 105 371 164 500 43 94 94 200 100 205 7 7 29 43 37 60 6 15 70 115
86 135 4 6 31 42 59 80 61 83 264 288 328 330 25 16 47 33 50 36 3 4 37 26 75
49 164 100 341 164 520 187 65 9 237 9 295 0 25 -3 60 -9 78 -11 45 -7 178
-45 221 -63 86 -37 167 -77 184 -91 9 -8 17 -12 17 -8 0 4 6 2 13 -4 6 -6 37
-28 68 -48 31 -20 78 -55 105 -77 58 -47 224 -210 224 -219 0 -4 14 -20 30
-36 17 -16 30 -34 30 -40 0 -5 3 -10 8 -10 4 0 18 -18 32 -40 14 -22 28 -40
32 -40 5 0 8 -4 8 -9 0 -5 22 -42 48 -83 59 -88 188 -349 208 -418 2 -8 22
-68 44 -132 22 -64 42 -127 44 -140 3 -13 10 -41 16 -63 10 -40 34 -160 45
-222 3 -18 7 -45 10 -60 2 -16 7 -57 10 -93 4 -36 8 -83 11 -105 6 -64 6 -383
0 -465 -7 -76 -23 -210 -32 -265 -3 -16 -7 -41 -9 -55 -6 -43 -44 -206 -54
-234 -6 -14 -9 -26 -6 -26 2 0 -8 -33 -22 -72 -14 -40 -26 -80 -28 -88 -2 -8
-9 -28 -16 -45 -7 -16 -13 -32 -14 -35 -1 -3 -7 -18 -13 -33 -7 -16 -12 -33
-12 -38 0 -6 47 -10 118 -10 64 1 124 1 132 0 8 0 116 0 240 0 124 0 232 0
240 0 8 0 116 0 240 0 124 0 232 0 240 0 8 0 152 0 320 0 168 0 312 0 320 0 8
0 116 0 240 0 124 0 232 0 240 0 8 0 116 0 240 0 124 0 232 0 240 0 8 0 110 1
225 3 l210 3 1 3108 1 3107 -398 0 -397 0 0 -357 c0 -197 -1 -363 -1 -369 -1
-10 -257 -17 -292 -8 -14 4 -16 42 -17 352 0 191 -1 355 -1 365 -1 16 -25 17
-398 15 l-397 -3 0 -365 -1 -365 -152 -1 c-132 -1 -152 1 -155 15 -2 9 -3 175
-3 369 l1 352 -397 0 -397 0 1 -875 c0 -482 -3 -879 -7 -882 -11 -12 -3317 -9
-3324 2 -4 6 -6 402 -7 880 l0 870 -397 3 -398 2 0 -368 0 -369 -152 1 -153 1
-3 368 -2 367 -398 -2 -397 -3 0 -366 0 -366 -155 0 -155 0 0 366 0 366 -397
3 -398 2 0 -3110z"/>
</g>
</svg>
