<svg width="100%" height="100%" viewBox="0 0 44 30" version="1.1" xmlns="http://www.w3.org/2000/svg" xmlns:xlink="http://www.w3.org/1999/xlink" xml:space="preserve" style="fill-rule:evenodd;clip-rule:evenodd;stroke-linejoin:round;stroke-miterlimit:1.41421;"><path d="M43.815,29.151l-28.568,0l13.321,0c0.675,-1.609 1.03,-3.434 1.03,-5.291c0,-5.84 -3.446,-10.582 -7.691,-10.582c-4.244,0 -7.69,4.742 -7.69,10.582c0,1.857 0.355,3.682 1.03,5.291l-15.247,0l0,-20.885l0,-8.266l3.726,0l0,3.456l1.455,0l0,-3.456l3.726,0l0,3.456l1.455,0l0,-3.456l3.726,0l0,8.266l15.638,0l0,-8.266l3.727,0l0,3.456l1.455,0l0,-3.456l3.726,0l0,3.456l1.455,0l0,-3.456l3.726,0l0,29.151Z" style="fill:#fff;"/></svg>
