<svg viewBox="0 0 350 153" xmlns="http://www.w3.org/2000/svg" fill-rule="evenodd" clip-rule="evenodd" stroke-linecap="round" stroke-linejoin="round" stroke-miterlimit="1.5"><g fill="#880455" fill-rule="nonzero"><path d="M97.253 130.438c.765 0 1.415.267 1.948.8.534.533.8 1.19.8 1.968 0 .78-.266 1.435-.8 1.968-.532.533-1.175.8-1.926.8-.752 0-1.4-.273-1.948-.82-.547-.547-.82-1.203-.82-1.97 0-.763.273-1.413.82-1.946.547-.533 1.19-.8 1.927-.8zM127.554 137.45h-3.32v-3.28c-2.434 2.68-5.243 4.018-8.427 4.018-3.185 0-5.898-1.162-8.14-3.485-2.24-2.323-3.36-5.112-3.36-8.365s1.133-6.034 3.402-8.344c2.268-2.31 5.035-3.465 8.302-3.465 3.266 0 6.007 1.326 8.22 3.977v-11.81h3.322v30.753zm-11.48-2.42c2.158 0 4.086-.805 5.78-2.42 1.695-1.61 2.543-3.654 2.543-6.128s-.786-4.538-2.358-6.192c-1.573-1.653-3.554-2.48-5.946-2.48s-4.387.854-5.986 2.562c-1.6 1.71-2.4 3.718-2.4 6.028 0 2.31.82 4.325 2.46 6.047 1.64 1.723 3.61 2.584 5.905 2.584zM134.607 106.698c.738 0 1.36.253 1.865.758.506.507.76 1.122.76 1.846s-.254 1.34-.76 1.845c-.506.506-1.12.758-1.845.758-.725 0-1.34-.26-1.845-.78-.506-.518-.76-1.126-.76-1.823 0-.698.254-1.306.76-1.825.505-.52 1.113-.78 1.825-.78zm1.722 30.752h-3.405v-22.347h3.404v22.347zM163.882 132.2c0 2.954-.253 5.14-.758 6.562-.506 1.42-1.27 2.624-2.296 3.608-1.025.984-2.255 1.73-3.69 2.235-1.436.506-3.014.758-4.736.758-5.823 0-9.704-2.46-11.645-7.38h3.608c1.585 2.843 4.223 4.264 7.914 4.264 1.693 0 3.21-.328 4.55-.984 1.34-.656 2.282-1.53 2.83-2.624.546-1.094.82-2.775.82-5.045v-.205c-1.067 1.204-2.352 2.12-3.855 2.748-1.504.63-3.062.943-4.674.943-3.225 0-5.924-1.106-8.097-3.32-2.173-2.215-3.247-4.825-3.22-7.832-.027-3.143 1.108-5.83 3.404-8.057 2.296-2.227 5.023-3.34 8.18-3.34s5.91 1.285 8.262 3.854v-3.28h3.402V132.2zm-3.28-6.272c0-2.35-.786-4.29-2.357-5.822-1.573-1.53-3.493-2.296-5.76-2.296-2.407 0-4.423.827-6.05 2.48-1.626 1.654-2.44 3.574-2.44 5.76 0 2.188.78 4.04 2.338 5.557 1.558 1.517 3.553 2.276 5.987 2.276 2.432 0 4.42-.745 5.966-2.235 1.544-1.49 2.316-3.396 2.316-5.72zM170.402 106.698c.738 0 1.36.253 1.865.758.506.507.76 1.122.76 1.846s-.254 1.34-.76 1.845c-.506.506-1.12.758-1.845.758-.724 0-1.34-.26-1.845-.78-.506-.518-.758-1.126-.758-1.823 0-.698.25-1.306.757-1.825.506-.52 1.114-.78 1.825-.78zm1.722 30.752h-3.403v-22.347h3.404v22.347zM187.623 118.056h-4.428v15.663c0 .573.082.92.246 1.044.165.123.575.185 1.23.185h1.97v2.91c-1.313.22-2.31.328-2.994.328-1.313 0-2.283-.32-2.912-.964-.63-.642-.943-1.66-.943-3.054v-16.114h-3.853v-2.953h3.854v-8.405h3.405v8.405h4.428v2.953zM213.495 137.45h-3.32v-3.28c-2.434 2.68-5.236 4.018-8.406 4.018-3.173 0-5.885-1.17-8.14-3.506-2.255-2.337-3.383-5.125-3.383-8.364 0-3.24 1.134-6.014 3.403-8.324 2.27-2.31 5.036-3.465 8.303-3.465 3.266 0 6.007 1.326 8.22 3.977v-3.404h3.322v22.347zm-11.48-2.42c2.268 0 4.223-.82 5.863-2.46 1.64-1.64 2.46-3.683 2.46-6.13 0-2.445-.806-4.496-2.42-6.15-1.612-1.653-3.587-2.48-5.924-2.48s-4.312.854-5.925 2.562c-1.614 1.71-2.42 3.725-2.42 6.048 0 2.324.82 4.34 2.46 6.048 1.64 1.71 3.61 2.563 5.905 2.563zM218.826 106.698h3.362v30.752h-3.362z"/></g><g fill="#fff" fill-rule="nonzero"><path d="M14.634 47.585V79.32h-5.58V47.585H.55V42.34h22.563v5.245h-8.48zM23.76 67.488c0-3.37 1.204-6.234 3.615-8.598 2.412-2.363 5.35-3.545 8.814-3.545 3.48 0 6.434 1.19 8.86 3.57 2.396 2.378 3.593 5.3 3.593 8.765 0 3.497-1.205 6.427-3.616 8.79-2.427 2.347-5.405 3.52-8.934 3.52-3.496 0-6.426-1.197-8.79-3.592-2.362-2.363-3.544-5.333-3.544-8.91zm5.508.096c0 2.332.622 4.176 1.867 5.533 1.278 1.373 2.963 2.06 5.054 2.06 2.107 0 3.79-.68 5.053-2.036 1.26-1.357 1.892-3.168 1.892-5.436 0-2.267-.63-4.08-1.892-5.436-1.278-1.374-2.962-2.06-5.054-2.06-2.06 0-3.73.686-5.006 2.06-1.278 1.372-1.916 3.145-1.916 5.316zM54.344 55.992h5.412v2.156c1.885-1.868 4.008-2.803 6.372-2.803 2.713 0 4.83.855 6.346 2.563 1.31 1.453 1.964 3.825 1.964 7.113v14.3h-5.413V66.29c0-2.298-.32-3.887-.958-4.765-.623-.895-1.756-1.34-3.4-1.34-1.79 0-3.058.59-3.81 1.77-.734 1.166-1.1 3.203-1.1 6.108V79.32h-5.413V55.992zM86.63 38.867v19.83c2.154-2.234 4.598-3.352 7.327-3.352 3.146 0 5.765 1.174 7.856 3.52 2.092 2.333 3.138 5.24 3.138 8.72 0 3.592-1.053 6.562-3.16 8.91-2.092 2.33-4.735 3.496-7.928 3.496-2.7 0-5.11-1.037-7.233-3.113v2.443h-5.39V38.867h5.39zM99.44 67.824c0-2.236-.606-4.056-1.82-5.46-1.23-1.438-2.77-2.157-4.623-2.157-1.98 0-3.593.695-4.838 2.084-1.23 1.375-1.845 3.163-1.845 5.366 0 2.267.607 4.08 1.82 5.437 1.214 1.39 2.81 2.083 4.79 2.083 1.87 0 3.418-.694 4.647-2.083 1.246-1.405 1.868-3.16 1.868-5.27zM110.65 55.992h5.39v2.084c.99-1.038 1.868-1.748 2.634-2.13.783-.4 1.71-.6 2.78-.6 1.42 0 2.905.463 4.454 1.39l-2.467 4.932c-1.02-.734-2.02-1.1-2.993-1.1-2.938 0-4.407 2.218-4.407 6.657V79.32h-5.39V55.992zM135.128 55.992V79.32h-5.388V55.992h5.388zm-6.203-9.7c0-.94.343-1.756 1.03-2.443s1.51-1.03 2.467-1.03c.974 0 1.804.343 2.49 1.03.688.67 1.03 1.492 1.03 2.466 0 .974-.342 1.804-1.03 2.49-.67.688-1.492 1.03-2.466 1.03-.974 0-1.804-.342-2.49-1.03-.688-.686-1.03-1.523-1.03-2.514zM159.15 38.867h5.413V79.32h-5.412v-2.443c-2.123 2.076-4.526 3.114-7.21 3.114-3.192 0-5.843-1.165-7.95-3.496-2.092-2.38-3.137-5.35-3.137-8.91 0-3.48 1.045-6.386 3.137-8.718 2.076-2.347 4.686-3.52 7.832-3.52 2.73 0 5.173 1.117 7.33 3.352v-19.83zm-12.79 28.717c0 2.236.6 4.056 1.797 5.46 1.23 1.422 2.78 2.132 4.646 2.132 1.997 0 3.61-.686 4.84-2.06 1.228-1.42 1.843-3.224 1.843-5.412 0-2.188-.615-3.992-1.844-5.413-1.23-1.388-2.827-2.083-4.79-2.083-1.853 0-3.402.703-4.647 2.108-1.23 1.42-1.844 3.178-1.844 5.27zM193.927 78.77c0 1.1-.036 2.07-.108 2.91-.073.838-.173 1.576-.3 2.214-.384 1.757-1.135 3.266-2.252 4.527-2.108 2.428-5.005 3.642-8.694 3.642-3.113 0-5.676-.84-7.688-2.516-2.075-1.724-3.273-4.11-3.593-7.16h5.413c.208 1.15.55 2.035 1.03 2.658 1.118 1.453 2.746 2.18 4.886 2.18 3.944 0 5.915-2.42 5.915-7.258V76.71c-2.14 2.187-4.606 3.28-7.4 3.28-3.178 0-5.78-1.15-7.808-3.448-2.045-2.33-3.066-5.245-3.066-8.743 0-3.4.95-6.29 2.85-8.67 2.043-2.523 4.742-3.785 8.095-3.785 2.937 0 5.38 1.095 7.327 3.282v-2.635h5.39V78.77zm-5.174-11.066c0-2.267-.607-4.08-1.82-5.436-1.23-1.39-2.803-2.084-4.72-2.084-2.042 0-3.654.758-4.836 2.275-1.07 1.356-1.605 3.112-1.605 5.268 0 2.124.535 3.864 1.605 5.22 1.166 1.486 2.778 2.228 4.837 2.228 2.06 0 3.69-.75 4.886-2.25 1.102-1.358 1.653-3.1 1.653-5.222zM221.972 68.925h-16.717c.143 1.916.766 3.442 1.868 4.575 1.102 1.117 2.515 1.676 4.24 1.676 1.34 0 2.45-.32 3.328-.958.863-.638 1.846-1.82 2.947-3.544l4.55 2.54c-.702 1.196-1.444 2.222-2.227 3.077-.782.854-1.62 1.557-2.514 2.108-.894.55-1.86.954-2.898 1.21-1.038.255-2.164.383-3.377.383-3.48 0-6.274-1.117-8.382-3.352-2.108-2.252-3.16-5.238-3.16-8.958 0-3.688 1.02-6.674 3.064-8.957 2.06-2.252 4.79-3.378 8.192-3.378 3.432 0 6.147 1.095 8.143 3.282 1.98 2.17 2.97 5.18 2.97 9.03l-.025 1.268zm-5.532-4.407c-.75-2.874-2.563-4.31-5.437-4.31-.654 0-1.27.1-1.844.3-.576.198-1.1.486-1.57.86-.47.376-.874.827-1.21 1.354-.335.527-.59 1.126-.765 1.796h10.825z"/></g><g transform="rotate(-180 530.13 142.998)"><path d="M806.63 247.13c4.487-11.5 6.85-24.546 6.85-37.825 0-41.752-22.91-75.648-51.13-75.648-28.22 0-51.132 33.896-51.132 75.648 0 13.28 2.363 26.324 6.85 37.824h88.562z" fill="#fff"/><clipPath id="a"><path d="M806.63 247.13c4.487-11.5 6.85-24.546 6.85-37.825 0-41.752-22.91-75.648-51.13-75.648-28.22 0-51.132 33.896-51.132 75.648 0 13.28 2.363 26.324 6.85 37.824h88.562z"/></clipPath><g clip-path="url(#a)"><path fill="#880455" d="M762.345 247.13h-51.13v-53.118h51.13zM813.475 194.116h-51.13v-60.458h51.13z"/><path d="M743.962 208.32c.342.2.46.64.262.982-.198.343-.638.46-.98.262-.343-.197-.46-.637-.263-.98.198-.342.64-.46.982-.263zm-7.474-1.412l12.434 7.178-12.563 21.76-12.435-7.18 12.563-21.758zm7.742.946c.6.347.807 1.116.46 1.717-.346.6-1.116.807-1.716.46-.6-.346-.806-1.115-.46-1.715.347-.6 1.116-.807 1.716-.46zm-14.052 26.494l-1.865-1.076.18-.31 1.864 1.076-.18.31zm-6.588-1.73l9.528 5.5c1.145.662 2.61.257 3.272-.89l13.74-23.796c.662-1.148.285-2.628-.86-3.29l-9.528-5.5c-1.144-.66-2.628-.254-3.29.893l-13.74 23.797c-.66 1.146-.266 2.626.878 3.286zM783.262 175.735c-.363-.007-.725-.034-1.085-.09-.73-.11-1.442-.326-2.11-.64-1.622-.756-2.957-2.075-3.734-3.687-.292-.605-.504-1.248-.63-1.907-.156-.81-.182-1.646-.078-2.466.102-.796.327-1.576.667-2.304.398-.85.95-1.628 1.623-2.284.695-.68 1.517-1.227 2.412-1.606.927-.393 1.93-.6 2.935-.614 1.01-.012 2.02.17 2.96.542.906.357 1.74.886 2.454 1.55.687.638 1.257 1.4 1.675 2.24.357.72.602 1.49.723 2.282.125.817.12 1.654-.015 2.468-.12.727-.346 1.436-.666 2.1-.763 1.583-2.064 2.884-3.648 3.648-.663.32-1.372.544-2.1.665-.357.06-.718.092-1.08.103-.1.002-.2.003-.302.002zm.17-2.5c.75-.013 1.488-.176 2.168-.494 1.025-.478 1.884-1.286 2.423-2.28.248-.456.428-.948.532-1.456.122-.594.14-1.21.056-1.81-.07-.517-.22-1.023-.442-1.496-.27-.58-.646-1.107-1.104-1.554-.473-.46-1.03-.835-1.64-1.092-.63-.267-1.31-.407-1.992-.416-.686-.01-1.373.115-2.01.367-.616.243-1.184.603-1.67 1.053-.466.436-.854.955-1.14 1.527-.23.465-.393.966-.478 1.48-.095.576-.095 1.17 0 1.746.082.492.234.972.45 1.422.51 1.057 1.374 1.93 2.425 2.453.67.333 1.4.514 2.147.547.092.003.183.004.275.004z" fill="#fff" fill-rule="nonzero"/><path fill="#fff" stroke="#880455" stroke-width="1.84" d="M670.45 197.24h2.9v22.42h-2.9z" transform="matrix(-1.06982 0 0 -.43123 1502.174 264.375)"/></g></g><path d="M327.12 38.87h-38.09 17.76c.9-2.147 1.374-4.58 1.374-7.057 0-7.786-4.594-14.11-10.254-14.11-5.66 0-10.254 6.324-10.254 14.11 0 2.477.473 4.91 1.374 7.056H268.7V0h4.968v4.608h1.94V0h4.97v4.608h1.938V0h4.968v11.02h20.852V0h4.968v4.608h1.94V0h4.97v4.608h1.938V0h4.968v38.87zM276.324 64.646c0-4.24-4.303-7.682-9.603-7.682s-9.603 3.443-9.603 7.682c0 2.507 1.527 4.855 4.093 6.293l-1.212 5.232 4.235-4.105c.81.175 1.648.263 2.488.263 5.3 0 9.604-3.443 9.604-7.684z" fill="#880455"/><path d="M270.144 60.573c0-4.145 4.207-7.51 9.388-7.51 5.182 0 9.39 3.365 9.39 7.51 0 2.45-1.494 4.746-4.002 6.152l1.184 5.115-4.14-4.012c-.792.17-1.61.257-2.432.257-5.18 0-9.388-3.366-9.388-7.512z" fill="#880455" stroke="#fff" stroke-width="2.004398"/><g fill="#880455" fill-rule="nonzero"><path d="M317.86 106.376c4.44-.343 8.983 1.438 12.152 4.794.415.458.36 1.26-.077 1.68-.402.51-1.208.518-1.623.022-2.71-2.8-6.54-4.312-10.298-4.01-3.122.214-6.147 1.657-8.413 3.967-.2.22-.458.4-.754.416-.742.094-1.43-.738-1.27-1.517.047-.28.214-.513.405-.7 2.654-2.722 6.215-4.395 9.88-4.654z"/><path d="M317.75 111.045c3.4-.396 6.934.948 9.34 3.555.377.46.33 1.214-.088 1.628-.38.5-1.15.557-1.58.103-1.543-1.628-3.626-2.663-5.787-2.832-2.624-.234-5.305.834-7.174 2.816-.43.49-1.232.433-1.62-.087-.418-.423-.453-1.196-.05-1.645 1.85-1.986 4.354-3.25 6.96-3.537z"/><path d="M318.252 115.652c2.147-.228 4.366.653 5.86 2.32.41.457.362 1.243-.07 1.665-.39.507-1.174.54-1.6.066-.842-.927-2.008-1.513-3.216-1.583-1.37-.105-2.757.476-3.73 1.508-.24.29-.595.466-.96.42-.844-.064-1.43-1.273-.85-2 1.177-1.366 2.846-2.212 4.566-2.396z"/><path d="M318.583 119.954c1.383-.25 2.787.976 2.832 2.48.128 1.476-1.086 2.876-2.467 2.843-1.24.046-2.39-1.058-2.5-2.38-.177-1.39.837-2.782 2.135-2.943z"/></g></svg>
