<svg version="1" xmlns="http://www.w3.org/2000/svg" width="16pt" height="16pt" viewBox="0 0 16.000000 16.000000"><path d="M0 6.54v6.222h5.67l.83-.01-.052-.144c-.12-.316-.212-.644-.276-.98-.036-.182-.074-.484-.08-.612l-.016-.17c-.014-.024-.004-.692.012-.846.026-.27.052-.47.082-.62l.02-.1.022-.11c.054-.264.21-.742.328-1l.2-.41.074-.12.172-.27.118-.16c.122-.166.528-.576.656-.66l.1-.072.15-.098c.328-.2.682-.328 1.04-.374.13-.018.474-.018.59 0l.156.022c.09.014.356.09.442.126.172.074.334.154.368.182l.034.016.026.008.136.096.21.154c.116.094.448.42.448.438l.06.072.06.08.016.02.064.08.064.08.016.018.096.166c.118.176.376.698.416.836l.088.264.088.28.032.126.09.444.02.12.02.186.022.21c.012.128.012.766 0 .93l-.064.53-.018.11c-.012.086-.088.412-.108.468l-.012.052-.044.144-.056.176-.032.09-.028.07-.026.066-.024.076.236.02h5.384l.45-.006.42-.006.002-6.216.002-6.214h-1.59v.714l-.002.738c-.002.02-.514.034-.584.016-.028-.008-.032-.084-.034-.704l-.002-.73c-.002-.032-.05-.034-.796-.03l-.794.006v.73l-.002.73-.304.002c-.264.002-.304-.002-.31-.03l-.006-.738.002-.704h-1.588l.002 1.75c0 .964-.006 1.758-.014 1.764-.022.024-6.634.018-6.648-.004-.008-.012-.012-.804-.014-1.76v-1.74l-.794-.006-.796-.004v1.474l-.304-.002-.306-.002-.006-.736-.004-.734-.796.004-.794.006v1.464h-.62v-1.464l-.794-.006-.796-.004v6.22z"/></svg>